<svg width="25" height="25" viewBox="0 0 25 25" fill="none" xmlns="http://www.w3.org/2000/svg">
<path d="M1.35667 23.6393L1.3609 23.6435C1.47292 23.7563 1.60615 23.8459 1.75291 23.9071C1.89968 23.9683 2.05709 23.9999 2.2161 24C2.3499 23.9999 2.48277 23.9778 2.60942 23.9347L9.50493 21.5956L22.737 8.36353C23.5459 7.55455 24.0003 6.45736 24.0002 5.31334C24.0002 4.16932 23.5457 3.07218 22.7367 2.26327C21.9277 1.45436 20.8305 0.99995 19.6865 1C18.5425 1.00005 17.4454 1.45456 16.6364 2.26354L3.40441 15.4956L1.06547 22.3909C0.991795 22.6053 0.980035 22.8362 1.03154 23.057C1.08304 23.2778 1.19573 23.4796 1.35667 23.6393V23.6393ZM17.7353 3.36226C18.2535 2.84799 18.9544 2.56004 19.6844 2.56144C20.4145 2.56284 21.1143 2.85349 21.6305 3.36974C22.1468 3.88599 22.4374 4.58577 22.4388 5.31585C22.4402 6.04592 22.1522 6.7468 21.6379 7.265L19.8979 9.00503L15.9951 5.10228L17.7353 3.36226ZM4.75966 16.3378L14.8964 6.201L18.7992 10.1037L8.66236 20.2405L2.75606 22.2441L4.75966 16.3378Z" fill="#0066FF" stroke="#0066FF"/>
</svg>
