<svg width="23" height="23" viewBox="0 0 23 23" fill="none" xmlns="http://www.w3.org/2000/svg">
<path d="M0.356673 22.6393L0.360898 22.6435C0.472921 22.7563 0.606146 22.8459 0.752912 22.9071C0.899679 22.9683 1.05709 22.9999 1.2161 23C1.3499 22.9999 1.48277 22.9778 1.60942 22.9347L8.50493 20.5956L21.737 7.36353C22.5459 6.55455 23.0003 5.45736 23.0002 4.31334C23.0002 3.16932 22.5457 2.07218 21.7367 1.26327C20.9277 0.454362 19.8305 -5.00809e-05 18.6865 4.13982e-09C17.5425 5.00892e-05 16.4454 0.454558 15.6364 1.26354L2.40441 14.4956L0.0654715 21.3909C-0.00820506 21.6053 -0.0199652 21.8362 0.0315395 22.057C0.0830442 22.2778 0.195729 22.4796 0.356673 22.6393V22.6393ZM16.7353 2.36226C17.2535 1.84799 17.9544 1.56004 18.6844 1.56144C19.4145 1.56284 20.1143 1.85349 20.6305 2.36974C21.1468 2.88599 21.4374 3.58577 21.4388 4.31585C21.4402 5.04592 21.1522 5.7468 20.6379 6.265L18.8979 8.00503L14.9951 4.10228L16.7353 2.36226ZM3.75966 15.3378L13.8964 5.201L17.7992 9.10375L7.66236 19.2405L1.75606 21.2441L3.75966 15.3378Z" fill="#0066FF"/>
</svg>
